<?xml version="1.0" encoding="UTF-8" standalone="no"?>
<!DOCTYPE svg PUBLIC "-//W3C//DTD SVG 1.1//EN" "http://www.w3.org/Graphics/SVG/1.1/DTD/svg11.dtd">
<svg width="100%" height="100%" viewBox="0 0 128 128" version="1.1" xmlns="http://www.w3.org/2000/svg" xmlns:xlink="http://www.w3.org/1999/xlink" xml:space="preserve" xmlns:serif="http://www.serif.com/" style="fill-rule:evenodd;clip-rule:evenodd;stroke-linejoin:round;stroke-miterlimit:2;">
    <g id="logo" transform="matrix(0.429132,0,0,0.851342,-6.55617,-149.805)">
        <rect x="15.278" y="175.963" width="298.277" height="150.351" style="fill:none;"/>
        <g transform="matrix(2.33029,0,0,1.46827,89.8469,204.154)">
            <rect x="0" y="0" width="64" height="64" style="fill:none;stroke:rgb(255,153,153);stroke-width:1.77px;"/>
        </g>
        <g id="FLAMINGO" transform="matrix(2.33029,0,0,1.17462,-1103.76,-341.243)">
            <g transform="matrix(0.169075,0,0,0.169075,462.096,450.405)">
                <path d="M608,308C608,308 607.5,287.5 592,276C576.5,264.5 522.5,223.5 494,217C465.5,210.5 365.5,261.5 347,323C328.5,384.5 325.5,399.5 339,423C352.5,446.5 436,526 436,526C436,526 457.567,485.898 475,493C502,504 545,489 545,489C545,489 409.5,390.5 415,361C420.5,331.5 429.5,320.5 458,313C486.5,305.5 479.753,347.804 496.253,364.304C512.753,380.804 551.714,365.162 561.313,376.133C568.313,384.133 588,403 588,403L608,475C608,475 649.5,391.5 646,369C642.5,346.5 608,308 608,308Z" style="fill:none;stroke:rgb(255,153,153);stroke-width:11.83px;stroke-linecap:round;stroke-miterlimit:1.5;"/>
            </g>
            <g>
                <path d="M559,503C559,503 565.167,506.571 565,502" style="fill:none;stroke:rgb(255,153,153);stroke-width:2px;stroke-linecap:round;stroke-miterlimit:1.5;"/>
                <path d="M555.725,503.633C559.969,506.171 563.025,512.317 555.45,513.367" style="fill:none;stroke:rgb(255,153,153);stroke-width:2px;stroke-linecap:round;stroke-miterlimit:1.5;"/>
                <path d="M560.084,508.78C560.084,508.78 564.971,510.001 566.07,513.3C567.17,516.598 565.46,529.059 565.46,529.059" style="fill:none;stroke:rgb(255,153,153);stroke-width:2px;stroke-linecap:round;stroke-miterlimit:1.5;"/>
                <path d="M562,518.165C563.676,517.012 566.209,516.181 565.315,511.68C568.464,514.231 569.687,515.025 570.995,512.778C572.05,516.612 567.344,525.657 565.022,530.717C563.452,526.854 561.997,522.926 562,518.165Z" style="fill:rgb(255,153,153);"/>
            </g>
            <g transform="matrix(0.571429,0,0,0.571429,239.571,214.286)">
                <circle cx="555.5" cy="503.5" r="3.5" style="fill:rgb(255,153,153);stroke:rgb(255,153,153);stroke-width:3.5px;stroke-linecap:round;stroke-miterlimit:1.5;"/>
            </g>
        </g>
        <g transform="matrix(4.64921,0,0,2.3435,13.9521,164.675)">
            <path d="M24,20.493C24.457,19.884 25.186,19.489 26.005,19.489C27.388,19.489 28.511,20.612 28.511,21.995C28.511,22.683 28.233,23.307 27.782,23.76L24.362,27.345C24.267,27.444 24.137,27.5 24,27.5C23.863,27.5 23.733,27.444 23.638,27.345L20.218,23.76C19.767,23.307 19.489,22.683 19.489,21.995C19.489,20.612 20.612,19.489 21.995,19.489C22.814,19.489 23.543,19.884 24,20.493Z" style="fill:none;stroke:rgb(255,153,153);stroke-width:1px;"/>
        </g>
        <g transform="matrix(1.32379,0,0,0.667276,-283.803,-88.4337)">
            <path d="M349.715,457.719L349.715,457.404L350.015,457.299C350.195,457.249 350.32,457.161 350.39,457.036C350.46,456.911 350.5,456.739 350.51,456.519L350.51,448.974C350.5,448.764 350.465,448.601 350.405,448.486C350.345,448.371 350.22,448.284 350.03,448.224L349.715,448.119L349.715,447.804L356.855,447.804L356.96,450.204L356.54,450.204L355.94,448.854C355.86,448.664 355.77,448.516 355.67,448.411C355.57,448.306 355.42,448.254 355.22,448.254L352.67,448.254C352.66,448.874 352.655,449.511 352.655,450.166L352.655,452.379L354.14,452.379C354.34,452.379 354.492,452.326 354.597,452.221C354.702,452.116 354.8,451.974 354.89,451.794L355.145,451.224L355.475,451.224L355.475,453.999L355.145,453.999L354.875,453.429C354.795,453.249 354.705,453.104 354.605,452.994C354.505,452.884 354.355,452.829 354.155,452.829L352.655,452.829L352.655,454.689C352.655,455.209 352.657,455.671 352.662,456.076C352.667,456.481 352.67,456.879 352.67,457.269L355.55,457.269C355.75,457.269 355.905,457.216 356.015,457.111C356.125,457.006 356.215,456.859 356.285,456.669L356.84,455.319L357.26,455.319L357.155,457.719L349.715,457.719Z" style="fill:rgb(255,153,153);fill-rule:nonzero;stroke:rgb(255,153,153);stroke-width:0.88px;"/>
            <path d="M362.72,457.974C362.17,457.974 361.612,457.906 361.047,457.771C360.482,457.636 360.01,457.459 359.63,457.239L359.72,455.154L360.155,455.154L360.62,456.189C360.76,456.479 360.905,456.719 361.055,456.909C361.205,457.099 361.405,457.244 361.655,457.344C361.825,457.414 361.987,457.461 362.142,457.486C362.297,457.511 362.47,457.524 362.66,457.524C363.27,457.524 363.752,457.366 364.107,457.051C364.462,456.736 364.64,456.319 364.64,455.799C364.64,455.329 364.517,454.959 364.272,454.689C364.027,454.419 363.635,454.159 363.095,453.909L362.48,453.639C361.64,453.269 360.977,452.839 360.492,452.349C360.007,451.859 359.765,451.209 359.765,450.399C359.765,449.799 359.917,449.286 360.222,448.861C360.527,448.436 360.95,448.109 361.49,447.879C362.03,447.649 362.66,447.534 363.38,447.534C363.91,447.534 364.407,447.604 364.872,447.744C365.337,447.884 365.745,448.074 366.095,448.314L365.99,450.174L365.555,450.174L365,449.049C364.84,448.719 364.687,448.481 364.542,448.336C364.397,448.191 364.22,448.099 364.01,448.059C363.89,448.039 363.787,448.024 363.702,448.014C363.617,448.004 363.505,447.999 363.365,447.999C362.875,447.999 362.452,448.141 362.097,448.426C361.742,448.711 361.565,449.104 361.565,449.604C361.565,450.084 361.7,450.474 361.97,450.774C362.24,451.074 362.63,451.339 363.14,451.569L363.815,451.854C364.785,452.274 365.48,452.721 365.9,453.196C366.32,453.671 366.53,454.279 366.53,455.019C366.53,455.899 366.197,456.611 365.532,457.156C364.867,457.701 363.93,457.974 362.72,457.974Z" style="fill:rgb(255,153,153);fill-rule:nonzero;stroke:rgb(255,153,153);stroke-width:0.88px;"/>
            <path d="M368.735,457.719L368.735,457.404L369.035,457.329C369.235,457.269 369.365,457.179 369.425,457.059C369.485,456.939 369.515,456.774 369.515,456.564C369.525,455.994 369.53,455.416 369.53,454.831L369.53,450.714C369.53,450.134 369.525,449.554 369.515,448.974C369.515,448.764 369.482,448.601 369.417,448.486C369.352,448.371 369.22,448.279 369.02,448.209L368.735,448.119L368.735,447.804L372.35,447.804C373.81,447.804 374.872,448.076 375.537,448.621C376.202,449.166 376.535,449.884 376.535,450.774C376.535,451.334 376.397,451.851 376.122,452.326C375.847,452.801 375.395,453.179 374.765,453.459C374.135,453.739 373.285,453.879 372.215,453.879L371.675,453.879L371.675,455.176C371.675,455.621 371.68,456.074 371.69,456.534C371.69,456.944 371.875,457.194 372.245,457.284L372.695,457.404L372.695,457.719L368.735,457.719ZM371.675,453.444L372.305,453.444C372.805,453.444 373.212,453.366 373.527,453.211C373.842,453.056 374.077,452.789 374.232,452.409C374.387,452.029 374.465,451.504 374.465,450.834C374.465,450.164 374.382,449.641 374.217,449.266C374.052,448.891 373.805,448.626 373.475,448.471C373.145,448.316 372.735,448.239 372.245,448.239L371.69,448.239C371.68,448.929 371.675,449.626 371.675,450.331L371.675,453.444Z" style="fill:rgb(255,153,153);fill-rule:nonzero;stroke:rgb(255,153,153);stroke-width:0.88px;"/>
            <path d="M378.5,457.719L378.5,457.404L378.8,457.299C378.98,457.249 379.105,457.161 379.175,457.036C379.245,456.911 379.285,456.739 379.295,456.519L379.295,448.974C379.285,448.764 379.25,448.601 379.19,448.486C379.13,448.371 379.005,448.284 378.815,448.224L378.5,448.119L378.5,447.804L385.64,447.804L385.745,450.204L385.325,450.204L384.725,448.854C384.645,448.664 384.555,448.516 384.455,448.411C384.355,448.306 384.205,448.254 384.005,448.254L381.455,448.254C381.445,448.874 381.44,449.511 381.44,450.166L381.44,452.379L382.925,452.379C383.125,452.379 383.277,452.326 383.382,452.221C383.487,452.116 383.585,451.974 383.675,451.794L383.93,451.224L384.26,451.224L384.26,453.999L383.93,453.999L383.66,453.429C383.58,453.249 383.49,453.104 383.39,452.994C383.29,452.884 383.14,452.829 382.94,452.829L381.44,452.829L381.44,454.689C381.44,455.209 381.442,455.671 381.447,456.076C381.452,456.481 381.455,456.879 381.455,457.269L384.335,457.269C384.535,457.269 384.69,457.216 384.8,457.111C384.91,457.006 385,456.859 385.07,456.669L385.625,455.319L386.045,455.319L385.94,457.719L378.5,457.719Z" style="fill:rgb(255,153,153);fill-rule:nonzero;stroke:rgb(255,153,153);stroke-width:0.88px;"/>
            <path d="M352.167,472.779L348.957,463.929C348.827,463.559 348.572,463.319 348.192,463.209L347.862,463.119L347.862,462.804L352.017,462.804L352.017,463.104L351.597,463.209C351.367,463.269 351.24,463.374 351.215,463.524C351.19,463.674 351.217,463.864 351.297,464.094L353.457,470.499L355.632,464.094C355.712,463.864 355.75,463.674 355.745,463.524C355.74,463.374 355.622,463.269 355.392,463.209L355.032,463.104L355.032,462.804L357.267,462.804L357.267,463.119L356.892,463.209C356.682,463.259 356.535,463.344 356.45,463.464C356.365,463.584 356.287,463.749 356.217,463.959L353.232,472.779L352.167,472.779Z" style="fill:rgb(255,153,153);fill-rule:nonzero;stroke:rgb(255,153,153);stroke-width:0.88px;"/>
            <path d="M359.187,472.719L359.187,472.404L359.487,472.299C359.667,472.249 359.792,472.161 359.862,472.036C359.932,471.911 359.972,471.739 359.982,471.519L359.982,463.974C359.972,463.764 359.937,463.601 359.877,463.486C359.817,463.371 359.692,463.284 359.502,463.224L359.187,463.119L359.187,462.804L366.327,462.804L366.432,465.204L366.012,465.204L365.412,463.854C365.332,463.664 365.242,463.516 365.142,463.411C365.042,463.306 364.892,463.254 364.692,463.254L362.142,463.254C362.132,463.874 362.127,464.511 362.127,465.166L362.127,467.379L363.612,467.379C363.812,467.379 363.965,467.326 364.07,467.221C364.175,467.116 364.272,466.974 364.362,466.794L364.617,466.224L364.947,466.224L364.947,468.999L364.617,468.999L364.347,468.429C364.267,468.249 364.177,468.104 364.077,467.994C363.977,467.884 363.827,467.829 363.627,467.829L362.127,467.829L362.127,469.689C362.127,470.209 362.13,470.671 362.135,471.076C362.14,471.481 362.142,471.879 362.142,472.269L365.022,472.269C365.222,472.269 365.377,472.216 365.487,472.111C365.597,472.006 365.687,471.859 365.757,471.669L366.312,470.319L366.732,470.319L366.627,472.719L359.187,472.719Z" style="fill:rgb(255,153,153);fill-rule:nonzero;stroke:rgb(255,153,153);stroke-width:0.88px;"/>
            <path d="M368.997,472.719L368.997,472.404L369.297,472.314C369.507,472.244 369.642,472.151 369.702,472.036C369.762,471.921 369.792,471.759 369.792,471.549L369.792,463.959C369.792,463.759 369.762,463.601 369.702,463.486C369.642,463.371 369.512,463.279 369.312,463.209L368.997,463.119L368.997,462.804L372.717,462.804L372.717,463.119L372.432,463.209C372.242,463.279 372.115,463.374 372.05,463.494C371.985,463.614 371.952,463.779 371.952,463.989L371.952,472.269L374.157,472.269C374.497,472.269 374.752,472.184 374.922,472.014C375.092,471.844 375.252,471.599 375.402,471.279L375.957,470.034L376.377,470.034L376.227,472.719L368.997,472.719Z" style="fill:rgb(255,153,153);fill-rule:nonzero;stroke:rgb(255,153,153);stroke-width:0.88px;"/>
            <path d="M378.357,472.719L378.357,472.404L378.762,472.284C378.972,472.224 379.135,472.134 379.25,472.014C379.365,471.894 379.457,471.729 379.527,471.519L382.557,462.759L383.802,462.759L386.817,471.579C386.897,471.799 386.987,471.966 387.087,472.081C387.187,472.196 387.347,472.289 387.567,472.359L387.792,472.419L387.792,472.719L383.982,472.719L383.982,472.419L384.237,472.344C384.457,472.274 384.59,472.164 384.635,472.014C384.68,471.864 384.667,471.679 384.597,471.459L383.967,469.524L380.652,469.524L380.007,471.429C379.937,471.649 379.917,471.829 379.947,471.969C379.977,472.109 380.102,472.219 380.322,472.299L380.652,472.404L380.652,472.719L378.357,472.719ZM380.802,469.089L383.832,469.089L382.362,464.574L380.802,469.089Z" style="fill:rgb(255,153,153);fill-rule:nonzero;stroke:rgb(255,153,153);stroke-width:0.88px;"/>
        </g>
    </g>
</svg>
